<?xml version="1.0" standalone="no"?>
<!DOCTYPE svg PUBLIC "-//W3C//DTD SVG 20010904//EN"
 "http://www.w3.org/TR/2001/REC-SVG-20010904/DTD/svg10.dtd">
<svg version="1.0" xmlns="http://www.w3.org/2000/svg"
 width="300.000000pt" height="300.000000pt" viewBox="0 0 300.000000 300.000000"
 preserveAspectRatio="xMidYMid meet">
<g transform="translate(0.000000,300.000000) scale(0.100000,-0.100000)"
fill="#FF0000" stroke="#FFFFFF">
<path d="M1385 2561 c-224 -43 -412 -106 -617 -206 -87 -42 -133 -79 -143
-112 -6 -20 -3 -20 24 8 61 61 341 179 564 239 176 47 296 62 397 50 102 -13
240 -48 240 -62 0 -6 -7 -7 -15 -4 -94 36 -290 59 -385 46 -147 -21 -294 -59
-470 -122 -104 -37 -310 -136 -310 -149 0 -9 45 10 110 46 14 7 70 31 125 53
197 78 325 116 480 142 146 25 230 21 382 -16 64 -16 103 -12 103 9 -1 23 -51
48 -137 67 -134 30 -231 33 -348 11z"/>
<path d="M1497 2463 c18 -2 50 -2 70 0 21 2 7 4 -32 4 -38 0 -55 -2 -38 -4z"/>
<path d="M1700 2438 c41 -11 69 -34 30 -24 -14 3 -66 11 -116 18 -84 11 -102
10 -210 -11 -227 -44 -432 -115 -661 -228 l-133 -66 2 -211 3 -211 2 203 3
202 42 26 c88 56 372 177 476 203 20 6 55 15 77 20 173 46 375 76 362 54 -4
-6 -39 -19 -79 -28 -339 -80 -739 -219 -755 -261 -7 -20 19 -47 68 -70 l40
-19 -6 -48 c-6 -53 -51 -164 -62 -154 -3 4 -9 24 -13 44 -7 33 -8 30 -9 -27
-1 -56 -6 -72 -35 -115 -19 -27 -32 -54 -30 -60 6 -14 -42 -72 -52 -62 -4 4
-11 26 -15 50 -5 26 -6 14 -2 -34 3 -51 1 -79 -6 -83 -19 -12 -71 -124 -71
-153 0 -23 5 -17 29 32 15 33 68 119 116 190 49 72 105 166 125 210 36 77 75
209 66 223 -2 4 -34 18 -70 32 -36 13 -66 27 -66 30 0 16 406 155 597 204 225
57 301 70 418 70 94 1 116 -2 150 -21 105 -56 143 -158 95 -252 -36 -71 -108
-114 -305 -183 -52 -18 -95 -35 -95 -38 0 -3 22 -17 48 -32 l48 -27 75 32
c210 92 308 185 325 309 6 43 -10 128 -24 128 -4 0 -7 -37 -7 -82 0 -111 -16
-140 -126 -231 -51 -41 -203 -117 -235 -117 -49 0 -30 19 49 50 194 77 241
110 283 198 17 37 16 86 -6 205 -6 38 -10 70 -8 72 1 2 21 -13 43 -32 23 -20
35 -37 28 -39 -8 -4 -2 -21 18 -52 78 -127 52 -254 -78 -373 -44 -40 -48 -46
-18 -25 152 107 208 302 117 409 -8 9 -12 20 -9 24 9 9 50 -41 76 -92 27 -54
28 -144 2 -200 -20 -44 -89 -135 -136 -178 -33 -32 -71 -55 -61 -39 3 6 -31
-9 -76 -32 -46 -23 -122 -59 -169 -79 l-85 -38 -165 96 c-90 54 -181 106 -201
116 -36 18 -50 39 -27 39 13 0 326 121 434 168 99 42 125 65 125 107 0 35 -22
60 -61 70 -56 14 -328 -46 -601 -132 -141 -44 -148 -48 -148 -72 0 -41 -38
-167 -67 -224 -38 -75 -91 -151 -172 -244 -91 -106 -87 -107 20 -11 37 33 115
138 153 207 37 64 72 162 82 229 8 51 17 57 159 99 262 79 501 130 559 119 54
-10 56 -54 4 -88 -13 -8 -135 -51 -273 -96 -279 -91 -401 -136 -398 -147 1 -4
26 -18 55 -31 48 -22 51 -22 26 -3 -16 11 -28 25 -28 29 0 10 70 43 115 54 28
7 29 7 12 -12 -43 -48 -31 -57 278 -232 22 -13 53 -30 69 -39 50 -29 45 -36
-49 -71 -16 -6 -43 -17 -60 -24 -16 -8 -55 -23 -85 -35 -317 -126 -492 -231
-580 -350 -29 -39 -59 -71 -66 -71 -10 0 -11 -7 -3 -29 7 -21 7 -36 0 -50 -16
-29 -13 -91 6 -151 18 -56 70 -120 97 -120 12 0 8 9 -17 33 -53 53 -72 102
-72 182 0 198 170 342 615 518 554 219 710 314 805 490 39 70 47 183 18 248
-26 58 -76 115 -132 151 -25 15 -41 28 -35 28 8 1 -135 50 -146 50 -2 0 12
-13 31 -30 40 -33 65 -81 55 -107 -6 -14 -10 -11 -27 16 -20 33 -90 72 -132
73 -12 1 -53 11 -90 24 -38 13 -76 24 -85 23 -9 0 -1 -5 18 -11z"/>
<path d="M2100 2413 c0 -5 26 -18 58 -28 85 -29 165 -87 204 -147 29 -47 33
-62 37 -136 2 -68 -1 -93 -20 -140 -50 -125 -143 -229 -291 -326 -104 -67
-206 -115 -548 -258 -290 -120 -386 -168 -470 -234 -92 -73 -138 -144 -159
-246 -14 -64 -4 -93 43 -137 21 -20 26 -21 26 -8 0 9 -6 17 -13 17 -19 0 -41
60 -39 105 10 172 146 295 474 426 57 22 122 49 145 60 23 10 45 19 48 19 10
0 265 110 353 152 240 116 401 269 463 440 12 32 24 57 26 54 7 -7 5 -305 -2
-316 -3 -5 -2 -10 3 -10 15 0 25 252 17 394 l-7 124 -39 15 c-21 8 -39 22 -39
30 0 22 -84 93 -144 121 -57 27 -126 43 -126 29z"/>
<path d="M892 2299 c-40 -17 -71 -33 -69 -35 3 -3 147 53 156 61 11 11 -19 2
-87 -26z"/>
<path d="M1565 2133 c-67 -9 -168 -36 -302 -79 -150 -49 -193 -75 -193 -121 0
-13 -16 -62 -35 -110 -19 -48 -32 -89 -30 -91 7 -7 48 83 74 162 l26 80 130
44 c113 37 175 55 400 110 l40 10 -40 -1 c-22 0 -53 -2 -70 -4z"/>
<path d="M661 1834 c0 -54 5 -108 10 -119 5 -13 6 23 3 95 -4 63 -8 117 -10
119 -2 2 -4 -40 -3 -95z"/>
<path d="M2614 1875 c-6 -15 11 -45 25 -45 3 0 15 7 25 15 16 12 17 17 6 30
-16 19 -49 19 -56 0z"/>
<path d="M1730 1819 c21 -14 108 -59 115 -59 18 0 -2 19 -44 43 -47 26 -105
40 -71 16z"/>
<path d="M1115 1732 c-49 -19 -84 -37 -78 -39 11 -4 142 47 173 67 28 18 -4 9
-95 -28z"/>
<path d="M2526 1700 c-14 -17 -42 -57 -62 -90 -20 -33 -39 -58 -41 -56 -3 3 0
28 6 56 16 75 12 95 -6 25 -8 -33 -15 -66 -16 -73 -1 -18 -186 -193 -271 -257
-40 -29 -121 -86 -182 -126 -60 -39 -125 -86 -145 -103 -20 -17 -78 -53 -128
-81 -50 -27 -91 -54 -91 -58 0 -5 10 -3 23 5 12 8 60 37 107 63 123 70 342
211 435 279 112 84 288 257 352 349 57 80 73 92 73 56 0 -38 -106 -183 -212
-291 -109 -111 -221 -198 -409 -320 -64 -42 -119 -81 -123 -87 -11 -17 63 18
127 60 62 41 111 69 122 69 4 0 -5 -15 -19 -32 -15 -18 -30 -38 -35 -44 -109
-136 -266 -279 -419 -381 -82 -55 -92 -58 -147 -39 -11 4 -3 -2 18 -14 l39
-21 60 35 c172 103 388 303 513 475 44 61 87 113 95 116 9 3 39 28 68 57 55
54 62 52 36 -10 -46 -107 -40 -113 12 -10 37 73 57 101 67 92 3 -3 -1 -24 -9
-46 -8 -23 -12 -43 -10 -45 2 -2 16 32 31 76 20 57 40 93 69 124 59 62 146
195 146 222 0 23 -23 55 -40 55 -4 0 -20 -14 -34 -30z"/>
<path d="M1230 1710 c-51 -11 -131 -48 -158 -73 -13 -12 -32 -38 -43 -57 -14
-24 -39 -45 -77 -65 -31 -17 -93 -65 -137 -108 -44 -43 -86 -75 -93 -72 -10 4
-11 -1 -6 -18 10 -33 13 -33 31 -6 28 42 129 133 188 169 64 39 72 46 118 109
26 36 47 50 119 80 48 20 90 40 94 44 4 4 5 6 3 6 -2 -1 -20 -5 -39 -9z"/>
<path d="M2175 1569 c-155 -140 -260 -203 -655 -385 -184 -84 -278 -141 -340
-205 -122 -127 -152 -270 -77 -380 20 -30 91 -88 110 -89 18 0 3 19 -37 47
-29 21 -52 49 -71 87 -36 73 -31 138 16 226 61 115 173 193 464 325 346 156
468 227 583 339 65 62 120 126 110 126 -2 0 -48 -41 -103 -91z"/>
<path d="M1155 1621 c-50 -22 -68 -43 -63 -73 6 -44 85 -30 146 25 27 25 28
43 3 57 -26 13 -38 12 -86 -9z m95 -17 c0 -14 -108 -74 -135 -74 -8 0 -15 9
-15 20 0 16 16 28 61 50 61 29 89 30 89 4z"/>
<path d="M684 1519 c-73 -86 -116 -150 -108 -158 6 -7 21 10 108 122 32 42 67
79 77 82 21 7 17 25 -5 25 -7 0 -40 -32 -72 -71z"/>
<path d="M1265 1521 c-88 -37 -178 -78 -200 -90 -51 -28 -39 -24 125 44 74 31
153 63 175 72 43 18 86 43 70 42 -6 0 -82 -31 -170 -68z"/>
<path d="M2115 1339 c-53 -40 -69 -58 -25 -29 54 37 84 60 74 59 -5 0 -27 -14
-49 -30z"/>
<path d="M1720 1224 c0 -14 -3 -14 -15 -4 -13 11 -14 10 -10 -2 6 -16 -50 -38
-96 -38 -17 0 -20 -3 -10 -9 10 -7 10 -10 1 -16 -7 -4 -16 -1 -21 6 -8 13 -10
12 -13 -10 -3 -24 -35 -35 -49 -16 -5 5 -6 1 -3 -11 5 -16 0 -24 -19 -32 -36
-17 -39 -15 -15 10 26 28 19 33 -19 13 -22 -11 -31 -23 -31 -40 0 -14 6 -25
12 -25 7 0 79 34 159 75 143 73 179 82 179 48 0 -13 3 -13 16 -2 14 12 14 14
-3 20 -10 4 -28 17 -40 28 -20 19 -23 19 -23 5z"/>
<path d="M1665 1094 c-274 -139 -384 -222 -433 -324 -32 -67 -39 -148 -16
-195 10 -21 20 -33 22 -27 2 7 8 9 13 6 5 -3 1 9 -11 28 -44 73 -11 187 81
278 32 32 73 66 91 76 18 9 103 52 188 95 139 70 232 128 205 128 -5 0 -68
-29 -140 -65z"/>
<path d="M1068 1013 c-20 -21 -43 -52 -52 -70 -25 -51 -18 -53 10 -3 14 25 39
60 57 78 17 17 29 32 26 32 -3 0 -21 -17 -41 -37z"/>
</g>
</svg>
